<svg width="3000" height="674" viewBox="0 0 3000 674" fill="none" xmlns="http://www.w3.org/2000/svg">
<path d="M172.777 649.747C167.715 664.155 154.107 673.797 138.836 673.797H0L231.109 16.0335C234.484 6.42798 243.556 0 253.737 0H401.07L172.777 649.747Z" fill="#1AD8AA"/>
<path d="M2879.53 68.9399H2855.62V56.1499H2916.44V68.9399H2892.52V137.366H2879.53V68.9399ZM2969 99.9557L2985.24 56.1499H3000V137.366H2987.3V110.507C2987.3 97.7174 2987.3 89.0842 2987.6 84.6077L2985.53 90.0434L2968.11 137.366H2957.78L2940.06 90.0434L2937.99 84.2879C2937.99 88.7644 2938.29 97.7174 2938.29 110.507V137.366H2925.59V56.1499H2940.36L2957.19 101.235C2957.19 101.874 2959.25 107.63 2962.8 118.181L2969 99.9557Z" fill="white"/>
<path d="M771.228 361.399C828.347 349.185 864.945 308.052 864.945 236.429C864.945 152.591 815.415 90.083 628.699 90.083H441.176V641.876H638.578C829.874 641.876 881.694 574.788 881.694 488.705C881.694 411.693 835.981 372.087 771.228 361.444M560.084 189.144H628.654C714.019 189.144 739.929 206.657 739.929 252.415C739.929 300.463 708.72 322.512 630.181 322.512H560.084V189.144ZM639.342 543.534H560.084V346.715C560.084 346.715 566.596 403.296 615.048 403.296H640.06C729.242 403.296 757.442 423.907 757.442 474.201C757.442 520.633 725.47 543.534 639.297 543.534" fill="white"/>
<path d="M1121.35 197.496C989.511 197.496 898.084 289.731 898.084 423.862C898.084 557.993 988.029 650.228 1125.21 650.228C1230.38 650.228 1301.29 606.042 1332.5 521.396L1226.56 508.463C1210.58 544.297 1177.75 562.574 1128.27 562.574C1058.89 562.574 1016.23 521.396 1013.89 450.536H1336.31C1350.01 298.128 1265.41 197.496 1121.35 197.496ZM1016.18 374.332C1023.05 312.542 1065 279.043 1124.41 279.043C1183.81 279.043 1225.8 316.404 1230.34 374.332H1016.18Z" fill="white"/>
<path d="M1660.44 205.892L1545.3 511.515L1429.49 205.892H1303.76L1463.13 588.034C1470.04 604.559 1481.58 618.21 1495.82 627.73C1510.1 637.25 1527.16 642.638 1545.08 642.638C1580.82 642.638 1613.06 621.219 1626.89 588.303L1787.74 205.892H1660.48H1660.44Z" fill="white"/>
<path d="M1974.73 197.496C1860.44 197.496 1749.12 266.829 1749.12 423.862C1749.12 580.895 1860.4 651.755 1974.73 651.755C2089.06 651.755 2199.61 582.422 2199.61 423.862C2199.61 265.302 2088.34 197.496 1974.73 197.496ZM1974.73 554.985C1909.93 554.985 1864.26 506.936 1864.26 423.862C1864.26 340.788 1909.93 293.503 1973.96 293.503C2038 293.503 2084.48 342.314 2084.48 423.862C2084.48 505.41 2039.53 554.985 1974.73 554.985Z" fill="white"/>
<path d="M2346.14 64.1719H2229.52V641.875H2346.14V64.1719Z" fill="white"/>
<path d="M2720.38 205.892L2605.24 511.515L2489.39 205.892H2363.65L2523.02 588.034C2529.94 604.559 2541.43 618.21 2555.71 627.73C2569.99 637.25 2587.06 642.638 2604.93 642.638C2640.63 642.638 2672.91 621.219 2686.74 588.303L2847.59 205.892H2720.33H2720.38Z" fill="white"/>
</svg>
