<svg width="3000" height="674" viewBox="0 0 3000 674" fill="none" xmlns="http://www.w3.org/2000/svg">
<path d="M172.777 649.747C167.715 664.155 154.107 673.797 138.836 673.797H0L231.109 16.0335C234.484 6.42798 243.556 0 253.737 0H401.07L172.777 649.747Z" fill="#1AD8AA"/>
<path d="M2879.53 68.9398H2855.62V56.1498H2916.44V68.9398H2892.52V137.366H2879.53V68.9398ZM2969 99.9556L2985.24 56.1498H3000V137.366H2987.3V110.507C2987.3 97.7173 2987.3 89.0841 2987.6 84.6076L2985.53 90.0433L2968.11 137.366H2957.78L2940.06 90.0433L2937.99 84.2878C2937.99 88.7643 2938.29 97.7173 2938.29 110.507V137.366H2925.59V56.1498H2940.36L2957.19 101.235C2957.19 101.874 2959.25 107.63 2962.8 118.181L2969 99.9556Z" fill="#1E1E1E"/>
<path d="M771.23 361.399C828.349 349.185 864.947 308.052 864.947 236.428C864.947 152.591 815.417 90.0829 628.701 90.0829H441.178V641.876H638.58C829.876 641.876 881.696 574.788 881.696 488.705C881.696 411.693 835.983 372.087 771.23 361.444M560.086 189.143H628.656C714.021 189.143 739.931 206.656 739.931 252.415C739.931 300.463 708.722 322.511 630.183 322.511H560.086V189.143ZM639.344 543.534H560.086V346.715C560.086 346.715 566.598 403.296 615.05 403.296H640.062C729.244 403.296 757.444 423.907 757.444 474.201C757.444 520.633 725.472 543.534 639.299 543.534" fill="#1E1E1E"/>
<path d="M1121.35 197.495C989.513 197.495 898.086 289.73 898.086 423.862C898.086 557.993 988.031 650.228 1125.22 650.228C1230.38 650.228 1301.29 606.042 1332.5 521.396L1226.57 508.463C1210.58 544.297 1177.75 562.574 1128.27 562.574C1058.89 562.574 1016.23 521.396 1013.9 450.535H1336.31C1350.01 298.128 1265.41 197.495 1121.35 197.495ZM1016.19 374.332C1023.06 312.542 1065 279.043 1124.41 279.043C1183.82 279.043 1225.8 316.404 1230.34 374.332H1016.19Z" fill="#1E1E1E"/>
<path d="M1660.44 205.891L1545.3 511.515L1429.49 205.891H1303.76L1463.13 588.033C1470.04 604.559 1481.58 618.21 1495.82 627.73C1510.1 637.249 1527.16 642.638 1545.08 642.638C1580.82 642.638 1613.07 621.218 1626.9 588.303L1787.75 205.891H1660.49H1660.44Z" fill="#1E1E1E"/>
<path d="M1974.73 197.495C1860.45 197.495 1749.13 266.829 1749.13 423.862C1749.13 580.895 1860.4 651.755 1974.73 651.755C2089.06 651.755 2199.61 582.422 2199.61 423.862C2199.61 265.302 2088.34 197.495 1974.73 197.495ZM1974.73 554.985C1909.93 554.985 1864.26 506.936 1864.26 423.862C1864.26 340.788 1909.93 293.503 1973.97 293.503C2038 293.503 2084.48 342.314 2084.48 423.862C2084.48 505.409 2039.53 554.985 1974.73 554.985Z" fill="#1E1E1E"/>
<path d="M2346.14 64.1719H2229.52V641.875H2346.14V64.1719Z" fill="#1E1E1E"/>
<path d="M2720.38 205.891L2605.24 511.515L2489.39 205.891H2363.65L2523.02 588.033C2529.94 604.559 2541.43 618.21 2555.71 627.73C2569.99 637.249 2587.06 642.638 2604.93 642.638C2640.63 642.638 2672.92 621.218 2686.75 588.303L2847.6 205.891H2720.34H2720.38Z" fill="#1E1E1E"/>
</svg>
